<svg
	width="24"
	height="24"
	viewBox="0 0 24 24"
	fill="none"
	xmlns="http://www.w3.org/2000/svg"
>
	<path
		d="M19 7H3C2.73478 7 2.48043 7.10536 2.29289 7.29289C2.10536 7.48043 2 7.73478 2 8V16C2 16.2652 2.10536 16.5196 2.29289 16.7071C2.48043 16.8946 2.73478 17 3 17H19C19.2652 17 19.5196 16.8946 19.7071 16.7071C19.8946 16.5196 20 16.2652 20 16V8C20 7.73478 19.8946 7.48043 19.7071 7.29289C19.5196 7.10536 19.2652 7 19 7Z"
		stroke="#F22425"
		stroke-width="2"
		stroke-linecap="round"
		stroke-linejoin="round"
	/>
	<path
		d="M21 10H22C22.2652 10 22.5196 10.1054 22.7071 10.2929C22.8946 10.4804 23 10.7348 23 11V13C23 13.2652 22.8946 13.5196 22.7071 13.7071C22.5196 13.8946 22.2652 14 22 14H21V10Z"
		fill="#F22425"
	/>
	<path
		d="M6.5 10.5V13.5M9.5 10.5V13.5"
		stroke="#F22425"
		stroke-width="2"
		stroke-linecap="round"
		stroke-linejoin="round"
	/>
</svg>
