<svg
	width="24"
	height="24"
	viewBox="0 0 24 24"
	fill="none"
	xmlns="http://www.w3.org/2000/svg"
>
	<path
		d="M10.3529 23V20.3722C9.31373 20.1278 8.41686 19.6593 7.66235 18.9667C6.90784 18.2741 6.35373 17.2963 6 16.0333L8.17647 15.1167C8.47059 16.0944 8.90706 16.838 9.48588 17.3472C10.0647 17.8565 10.8243 18.1111 11.7647 18.1111C12.5686 18.1111 13.2502 17.9229 13.8094 17.5464C14.3686 17.17 14.6478 16.5841 14.6471 15.7889C14.6471 15.0759 14.4314 14.5109 14 14.0937C13.5686 13.6765 12.5686 13.2027 11 12.6722C9.31373 12.1222 8.15686 11.4655 7.52941 10.702C6.90196 9.93852 6.58824 9.00637 6.58824 7.90556C6.58824 6.58148 7 5.55278 7.82353 4.81944C8.64706 4.08611 9.4902 3.66852 10.3529 3.56667V1H12.7059V3.56667C13.6863 3.72963 14.4953 4.10159 15.1329 4.68256C15.7706 5.26352 16.2361 5.97119 16.5294 6.80556L14.3529 7.78333C14.1176 7.13148 13.7843 6.64259 13.3529 6.31667C12.9216 5.99074 12.3333 5.82778 11.5882 5.82778C10.7255 5.82778 10.0686 6.02659 9.61765 6.42422C9.16667 6.82185 8.94118 7.31563 8.94118 7.90556C8.94118 8.57778 9.23529 9.10741 9.82353 9.49444C10.4118 9.88148 11.4314 10.2889 12.8824 10.7167C14.2353 11.1241 15.26 11.771 15.9565 12.6576C16.6529 13.5441 17.0008 14.5675 17 15.7278C17 17.1741 16.5882 18.2741 15.7647 19.0278C14.9412 19.7815 13.9216 20.25 12.7059 20.4333V23H10.3529Z"
		fill="#F22425"
	/>
	<rect
		x="6.33551"
		y="21.4214"
		width="21.6853"
		height="1.75059"
		transform="rotate(-62.193 6.33551 21.4214)"
		fill="#F22425"
	/>
</svg>
