<svg
	width="24"
	height="24"
	viewBox="0 0 24 24"
	fill="none"
	xmlns="http://www.w3.org/2000/svg"
>
	<path
		fill-rule="evenodd"
		clip-rule="evenodd"
		d="M19.71 2.8368C20.443 2.9838 21.016 3.5568 21.163 4.2898C21.2677 4.81501 21.2526 5.35708 21.1188 5.87564C20.985 6.3942 20.7358 6.87588 20.39 7.2848L17.639 10.5368L19.583 17.6678C19.6411 17.8804 19.6418 18.1046 19.5853 18.3176C19.5287 18.5307 19.4169 18.725 19.261 18.8808L17.959 20.1828C17.8485 20.2933 17.7138 20.3767 17.5655 20.4263C17.4173 20.4759 17.2595 20.4904 17.1047 20.4687C16.9499 20.447 16.8023 20.3896 16.6734 20.3011C16.5445 20.2126 16.4379 20.0955 16.362 19.9588L13.42 14.6628L10.562 17.0438L10.772 18.0968C10.8127 18.2987 10.8028 18.5074 10.7433 18.7046C10.6838 18.9017 10.5765 19.0811 10.431 19.2268L8.76702 20.8898C8.65382 21.0028 8.51539 21.0874 8.36313 21.1364C8.21087 21.1855 8.04913 21.1977 7.89124 21.172C7.73334 21.1463 7.58381 21.0835 7.45494 20.9887C7.32607 20.8939 7.22157 20.7699 7.15002 20.6268L5.89002 18.1098L3.37402 16.8498C3.23094 16.7783 3.1069 16.6737 3.01212 16.5449C2.91733 16.416 2.85452 16.2665 2.82883 16.1086C2.80315 15.9507 2.81535 15.789 2.86441 15.6367C2.91347 15.4844 2.99799 15.346 3.11102 15.2328L4.77502 13.5688C4.92061 13.4234 5.09983 13.3163 5.29678 13.2568C5.49372 13.1973 5.70231 13.1873 5.90402 13.2278L6.95702 13.4378L9.33802 10.5808L4.04202 7.6378C3.90536 7.56191 3.78817 7.45532 3.6997 7.32645C3.61122 7.19757 3.55387 7.04991 3.53215 6.89511C3.51044 6.7403 3.52496 6.58256 3.57456 6.43431C3.62417 6.28607 3.70751 6.15136 3.81802 6.0408L5.12002 4.7388C5.27587 4.58295 5.47016 4.47108 5.68318 4.41453C5.89621 4.35799 6.1204 4.35877 6.33302 4.4168L13.463 6.3608L16.716 3.6098C17.1249 3.26397 17.6066 3.01486 18.1252 2.88103C18.6437 2.74719 19.1858 2.73207 19.711 2.8368H19.71ZM19.218 4.7818C19.0026 4.75322 18.7837 4.76995 18.5751 4.83091C18.3666 4.89187 18.1731 4.99572 18.007 5.1358L14.357 8.2248C14.2319 8.33054 14.083 8.40426 13.9231 8.43963C13.7632 8.47499 13.597 8.47093 13.439 8.4278L6.22602 6.4598L6.15902 6.5258L11.354 9.4118C11.484 9.48399 11.5964 9.58398 11.6832 9.70463C11.7701 9.82528 11.8292 9.96361 11.8565 10.1098C11.8837 10.2559 11.8783 10.4062 11.8407 10.5501C11.8031 10.6939 11.7343 10.8277 11.639 10.9418L8.11502 15.1698C7.99866 15.3095 7.84676 15.4152 7.67533 15.4757C7.5039 15.5363 7.3193 15.5494 7.14102 15.5138L5.90402 15.2668L5.49602 15.6748L7.05302 16.4538C7.26594 16.5602 7.43858 16.7329 7.54502 16.9458L8.32502 18.5028L8.73202 18.0948L8.48502 16.8578C8.44939 16.6795 8.46254 16.4949 8.52309 16.3235C8.58363 16.1521 8.68933 16.0002 8.82902 15.8838L13.058 12.3598C13.1722 12.2646 13.3059 12.1957 13.4497 12.1581C13.5936 12.1205 13.7439 12.1151 13.8901 12.1424C14.0362 12.1696 14.1745 12.2287 14.2952 12.3156C14.4158 12.4024 14.5158 12.5148 14.588 12.6448L17.473 17.8398L17.539 17.7728L15.572 10.5598C15.529 10.4017 15.5251 10.2355 15.5607 10.0756C15.5962 9.91568 15.6701 9.7668 15.776 9.6418L18.864 5.9918C19.149 5.6548 19.276 5.2158 19.218 4.7818Z"
		fill="#F22425"
	/>
</svg>
