<svg
	width="42"
	height="42"
	viewBox="0 0 42 42"
	fill="none"
	xmlns="http://www.w3.org/2000/svg"
>
	<path
		d="M34.1775 11.2177C34.6833 11.6958 34.9784 12.3552 34.9981 13.0509C35.0178 13.7466 34.7604 14.4217 34.2825 14.9277L19.4075 30.6777C19.1664 30.9325 18.8767 31.1364 18.5555 31.2773C18.2343 31.4183 17.8881 31.4934 17.5373 31.4983C17.1866 31.5032 16.8384 31.4377 16.5134 31.3058C16.1884 31.1739 15.8931 30.9781 15.645 30.7302L7.77 22.8552C7.30632 22.3575 7.05389 21.6994 7.06588 21.0193C7.07788 20.3393 7.35338 19.6904 7.83432 19.2095C8.31527 18.7285 8.96411 18.453 9.64417 18.441C10.3242 18.429 10.9824 18.6815 11.48 19.1452L17.4475 25.1092L30.4675 11.3227C30.9456 10.8169 31.605 10.5217 32.3008 10.502C32.9965 10.4823 33.6715 10.7397 34.1775 11.2177Z"
		fill="white"
	/>
</svg>
